<svg xmlns="http://www.w3.org/2000/svg" version="1.1" width="600px" height="600px" viewBox="0 0 200 200" style="overflow:hidden!important;"><g id="svga-group-wrapper"><g id="svga-group-backs-single"></g><g id="svga-group-humanwrap-move" transform="matrix(1,0,0,1,0,0)"><g id="svga-group-humanwrap"><g id="svga-group-hair-back-move" transform="matrix(1,0,0,1,0,0)"><g id="svga-group-hair-back"><path id="SvgjsPath4682" d="m138.2 58.5 7.6 15.3-1.2 31.3-5.4 31.4-16.7 24.5-79.2 36s-5.7-16.6-5.7-17.5 21.2-55 21.2-55L50.9 73 79 41.9l35.1 4.5 24.1 12.1z" fill="#955932" stroke-width="none" opacity="1" stroke="none"></path></g></g><g id="svga-group-humanbody-back"><path id="SvgjsPath4046" d="m168.2 200-4.6-14.2-34.9-13.4-10.8-9.7-1.4-50.5h-33l-1.4 50.5-10.8 9.7-34.9 13.4-4.6 14.2-3 20h142.4z" fill="#f3d4cf" stroke-width="none" opacity="1"></path><path id="SvgjsPath4047" d="m83.5 112.2-1.4 50.5-10.8 9.7-34.9 13.4-4.6 14.2-3 20H39v-20l1.7-13.3 32.1-12.9 14.1-9.5 2-52.1z" fill="#d4958a" stroke-width="none" opacity="1"></path></g><g id="svga-group-chinshadow-single"><path id="SvgjsPath4042" d="m117.5 151.4-1.1-39.3H83.5l-1.2 44.3c3.4 1.7 11 5.4 14.9 5.4 5.2 0 16.6-6.3 16.6-6.3 1.3-1.2 2.5-2.6 3.7-4.1z" fill="#c5796d" stroke-width="none" opacity="1"></path></g><g id="svga-group-humanbody-front"></g><g id="svga-group-clothes-single"><path id="SvgjsPath4978" d="m170.3 199.6-4.7-15.1-32.8-12-2-4.2-3.4-1.2.3-1.3-1.2-7.3-2.5-2.4.3-3.2-3.5-5.4h-3.4l-1 2.2-6.4 5.1-10 1.3-10-1.3-6.4-5.1-1-2.2h-3.4l-3.5 5.4.3 3.2-2.5 2.4-1.2 7.3.3 1.3-3.4 1.2-2 4.2-32.8 12-4.7 15.1-2.9 20.4h146.4z" fill="#09aac5" stroke-width="none" opacity="1"></path><path id="SvgjsPath4979" d="m124.3 152.9-3.5 5.9-.4-5.5-3-1.9 2.6 2.6v6.2l-.4.7-3.6 3.5 4.3-2.6 2.9 5.3 1 8.5-.3-9.2-2.7-5.6 2.7-4.7.4-3.2zm-18.9 34H93.8l-13-4.2-1.7-2.4h3.7l2.4.7 1.6 3.3s-.5-1.8-.8-3l5.7 1.7 11.5.2-8-1-.8-7.4.6-3.9 9.2-.4-9.1-.8.3-2.3.6-8.1s-1.6 8.4-1.4 8.7c0 .1-.1.7-.2 1.6h-.3l-5.8-3.2.9-1.8.6-8.3-1.2 8-.9 1.8-1.1-.6-.8-2.5 1-3.9 3-2.7 9.6 1.5 11.7-1.7 8.4-7.9s-.1-.3-.2-.7h-1.8l-1 2.2-6.4 5.1-10 1.4-10-1.4-6.4-5.1-1-2.2h-3.3l-3.6 5.4.3 3.2-2.5 2.4-1.2 7.3.3 1.4-3.4 1.2-2 4.2-32.8 12-4.7 15-3 20.3h8l3.8-24.3 1.8-3.6c2.8 3.2 7.1 8.4 7.1 8.4l4 13.7.3 5.9H54c-.2-3.4-.4-7.2-.4-7.5 0-.5-5.1-13.2-5.1-13.2l-7.9-7.5.3-.6 32.6-9.6 3.9 1.2 14.9 5.2 13 .2 10.7-3 8.3-7.1-8.3 5.9-10.6 2.8zM92.6 171l1.7-.1c-.3 1.8-.7 3.9-.6 4.1.1.3 1.1 5.2 1.5 7.2l-3.1-.4-6.2-2.8c.2-2.7.6-8.8.6-8.8l.6-1.3 5.5 2.1zm-8.5-3.2 2.2.9-.8 1.7-.4 8.4-2.1-.9-1.3-5.6 2.4-4.5zm63.6 44.7c0 .3-.2 4.1-.4 7.5h2.1l.3-5.9 4-13.7s6.6-7.9 8.8-10.3l-9.7 9.2s-5.1 12.7-5.1 13.2zm14.8-22.4.7-.6c-.1 0-.4.3-.7.6zm-47.9-25.3-.8-3.5h.3-.3l-1.1-4.4.8 4.4-11.4-1-7.6-1.7s7.1 2.9 7.6 2.9h1.9l1.3 5.4.2 7.1 1.4 6.7 1.3 4.7-.6-4.5s-1.1-6.1-1.3-6.6c-.2-.4-.6-7.4-.6-7.4l-1.8-5.5c2.8 0 7.7-.1 9.4-.1l.7 4 1.4 4.7-.8 5 1.3 5.4.7 2.7-.3-3.6-1.1-4.4 1-5.8-1.6-4.5z" fill="#009cb6" stroke-width="none" opacity="1"></path></g><g id="svga-group-head" transform="matrix(1,0,0,1,0,0)"><g id="svga-group-ears-left-move" transform="matrix(1,0,0,1,0,0)"><g id="svga-group-ears-left"><path id="SvgjsPath3996" d="M64.1 91.8s-6-.7-10.6-3.7c0 0-3.5 9.4-4 14.4 0 0 6.7 13 10 18.5 0 0 5.2-.7 6.3-1.4l1.4-8.4-3.1-19.4z" fill="#f3d4cf" stroke-width="none" opacity="1"></path><path id="SvgjsPath3997" d="M54.3 90c-.2-.4-.8-1.9-.8-1.9 5.2.4 10.7 1.4 10.7 1.4l3 21.7-1.4 8.4c-1.1.7-6.3 1.4-6.3 1.4-.6-1-1.3-2.4-2.1-3.7l2.6 1 3-1.6s.7-11.2.5-11.5c-.1-.3-9-14.8-9.2-15.2z" fill="#e4b3ab" stroke-width="none" opacity="1"></path><path id="SvgjsPath3998" d="m51.3 100.9 2.8-5.5 5.2 6.8 2.2 9.5-1.4 1.9-4.3-7.6 1-4.7-2.6-4z" fill="#d4958a" stroke-width="none" opacity="1"></path></g></g><g id="svga-group-ears-right-move" transform="matrix(1,0,0,1,0,0)"><g id="svga-group-ears-right"><path id="SvgjsPath3999" d="M135.9 91.8s6-.7 10.6-3.7c0 0 3.5 9.4 4 14.4 0 0-6.7 13-10 18.5 0 0-5.2-.7-6.3-1.4l-1.4-8.4 3.1-19.4z" fill="#f3d4cf" stroke-width="none" opacity="1"></path><path id="SvgjsPath4000" d="M145.7 90c.2-.4.8-1.9.8-1.9-5.2.4-10.7 1.4-10.7 1.4l-3 21.73 1.4 8.37c1.1.7 6.3 1.4 6.3 1.4.6-1 1.3-2.4 2.1-3.7l-2.6 1-3-1.6s-.7-11.2-.5-11.5c.1-.3 9-14.8 9.2-15.2z" fill="#e4b3ab" stroke-width="none" opacity="1"></path><path id="SvgjsPath4001" d="m148.7 100.9-2.8-5.5-5.2 6.8-2.2 9.5 1.4 1.9 4.3-7.6-1-4.7 2.6-4z" fill="#d4958a" stroke-width="none" opacity="1"></path></g></g><g id="svga-group-faceshape-wrap"><g id="svga-group-faceshape-single"><path id="SvgjsPath4028" d="M136.8 61c-6.7-11.2-19-18.9-19-18.9-7-1.5-17.8-2.2-17.8-2.2s-10.8.8-17.8 2.2c0 0-12.4 7.6-19 18.9 0 0-5 14-5.2 23.9 0 0 2.6 23.7 5.8 34 0 0 9.9 19.8 19.6 29.7 0 0 11.5 6.3 16.6 6.3s16.6-6.3 16.6-6.3c9.7-9.9 19.6-29.7 19.6-29.7 3.1-10.3 5.8-34 5.8-34-.3-9.8-5.2-23.9-5.2-23.9z" fill="#f3d4cf" stroke-width="none" opacity="1"></path><path id="SvgjsPath4029" d="m85.8 45.6 28.8-.8L136.8 61c-6.7-11.2-19-18.9-19-18.9-7-1.5-17.8-2.2-17.8-2.2s-10.8.8-17.8 2.2c0 0-12.4 7.6-19 18.9 0 0-5 14-5.2 23.9 0 0 2.6 23.7 5.8 34 0 0 9.9 19.8 19.6 29.7 0 0 11.5 6.3 16.6 6.3-4.1-.5-15.3-8.6-15.3-8.6-3.3-4.7-15.2-28-15.2-28-2.5-6.4-6.6-34.9-6.6-34.9.3-3.3 4.4-20.5 4.4-21.3s18.5-16.5 18.5-16.5z" fill="#d4958a" stroke-width="none" opacity="1"></path></g></g><g id="svga-group-mouth-single-move" transform="matrix(1,0,0,1,0,0)"><g id="svga-group-mouth-single"><path id="SvgjsPath3984" d="m89.05 131.51 3.93 5.83 7.86 1.79 8.03-1.68 4.22-5.48-10-3.06L92.58 130z" fill="#da7c87" stroke-width="none" opacity="1" transform="translate(0 3)"></path><path id="SvgjsPath3985" d="m86.52 132.54 9.16-6.15 4.58 1.82s4.34-1.76 4.52-1.76c.18 0 9.95 6.33 9.95 6.33l-10.32-1.38-4.03 2.13-4.15-2.38-9.71 1.39z" fill="#cb5f6c" stroke-width="none" opacity="1" transform="translate(0 3)"></path><path id="SvgjsPath3986" d="m101.09 138.07 7.01-1.33 2.78-3.37-3.24 2.78z" fill="#f9bfc6" stroke-width="none" opacity="1" transform="translate(0 3)"></path></g></g><g id="svga-group-eyes-left-move" transform="matrix(1,0,0,1,0,0)"><g id="svga-group-eyes-left"><g id="svga-group-eyesback-left"><path id="SvgjsPath5484" d="m91.1 104.4-2.5-6.8-10.9-3.1-7.2 2.1 5.5 8.1z" fill="#ffffff" stroke-width="none" opacity="1"></path></g><g id="svga-group-eyesiriswrapper-left" transform="matrix(1,0,0,1,0,0)"><g id="svga-group-eyesiriscontrol-left" transform="matrix(1,0,0,1,0,0)"><g id="svga-group-eyesiris-left"><path id="SvgjsPath4062" d="m82.59 104.53-4.96-1.82-.91-5.21 4.06-3.39 4.96 1.82.91 5.21z" fill="#681711" stroke-width="none" opacity="1" stroke="none"></path><path id="SvgjsPath4063" d="m78.98 100.2.59-2.78 2.71-.88 2.11 1.9-.59 2.78-2.71.88z" fill="#000000" stroke-width="none" opacity="1"></path><path id="SvgjsPath4064" d="m78.88 96.88 1.96 1.88.55-.39-1.1-2.43z" fill="#ffffff" stroke-width="none" opacity="1"></path><path id="SvgjsPath4065" d="m82.49 101.12.47.86.78-.31-.39-.95z" fill="#ffffff" stroke-width="none" opacity="1"></path></g></g></g><g id="svga-group-eyesfront-left"><path id="SvgjsPath5492" d="M68 94.5v11.1l7.7 7.9h10.9l7.7-7.9V94.5l-7.7-7.9H75.7L68 94.5zm2.5 2.1 7.1-2.1 11 3.1 2.5 6.8-15.1.3-5.5-8.1z" fill="#f3d4cf" stroke-width="none" opacity="1" stroke="none"></path><path id="SvgjsPath5493" d="m71.4 96.9 4.9 7.7 7.2-.1-7.5.4-5.9-7.9z" fill="#d4958a" stroke-width="none" opacity="1" stroke="none"></path><path id="SvgjsPath5494" d="m91.9 105.9-2.5-9-11-4.6L65 94.7l4.1 2.6h2.5l7-2.5 9.9 2.9 2.2 6.6z" fill="#000000" stroke-width="none" opacity="1" stroke="none"></path></g></g></g><g id="svga-group-eyes-right-move" transform="matrix(1,0,0,1,0,0)"><g id="svga-group-eyes-right"><g id="svga-group-eyesback-right"><path id="SvgjsPath5485" d="m108.9 104.4 2.5-6.8 10.9-3.1 7.2 2.1-5.5 8.1z" fill="#ffffff" stroke-width="none" opacity="1"></path></g><g id="svga-group-eyesiriswrapper-right" transform="matrix(1,0,0,1,0,0)"><g id="svga-group-eyesiriscontrol-right" transform="matrix(1,0,0,1,0,0)"><g id="svga-group-eyesiris-right"><path id="SvgjsPath4066" d="m119.22 104.53-4.96-1.82-.91-5.21 4.06-3.39 4.96 1.82.91 5.21z" fill="#681711" stroke-width="none" opacity="1" stroke="none"></path><path id="SvgjsPath4067" d="m115.61 100.2.59-2.78 2.71-.88 2.11 1.9-.59 2.78-2.71.88z" fill="#000000" stroke-width="none" opacity="1"></path><path id="SvgjsPath4068" d="m115.51 96.88 1.96 1.88.55-.39-1.1-2.43z" fill="#ffffff" stroke-width="none" opacity="1"></path><path id="SvgjsPath4069" d="m119.12 101.12.47.86.78-.31-.39-.95z" fill="#ffffff" stroke-width="none" opacity="1"></path></g></g></g><g id="svga-group-eyesfront-right"><path id="SvgjsPath5495" d="M124.3 86.6h-10.9l-7.7 7.9v11.1l7.7 7.9h10.9l7.7-7.9V94.5l-7.7-7.9zm-.3 18.1-15.1-.3 2.5-6.8 11-3.1 7.1 2.1-5.5 8.1z" fill="#f3d4cf" stroke-width="none" opacity="1" stroke="none"></path><path id="SvgjsPath5498" d="m128.6 96.9-4.9 7.7-7.2-.1 7.5.4 5.9-7.9z" fill="#d4958a" stroke-width="none" opacity="1" stroke="none"></path><path id="SvgjsPath5499" d="m108.1 105.9 2.5-9 11-4.6 13.4 2.4-4.1 2.6h-2.5l-7-2.5-9.9 2.9-2.2 6.6z" fill="#000000" stroke-width="none" opacity="1" stroke="none"></path></g></g></g><g id="svga-group-facehighlight-single"></g><g id="svga-group-eyebrows-left-move" transform="matrix(1,0,0,1,0,0)"><g id="svga-group-eyebrows-left-rotate" transform="matrix(1,1.7453292519943295e-9,-1.7453292519943295e-9,1,1.5158184396568686e-7,-1.3953906830010965e-7)"><g id="svga-group-eyebrows-left"><path id="SvgjsPath6246" d="m92.2 87.2-1.7 3.5-14.6-4.1-8.2 2 5.9-5 3-.6z" fill="#3b3128" stroke-width="none" opacity="1" stroke="none"></path><path id="SvgjsPath6247" d="m85.7 85.5 1.4.4.5 2.6-1.9-3zM76.6 83l3 3.6-4.3-3.4 1.3-.2zm6.4 1.7 1 3.1-2.6-3.5 1.6.4zm-12 1.1h1.9l-2.6.6.7-.6zm13.9-.6.2 1.1-1.2-1.3 1 .2zm-11.3-1.6 2.6 1.4-3.2-.8.6-.6zm15.7 2.8.5 3.1-2.3-3.5 1.8.4z" fill="#4a423a" stroke-width="none" opacity="1" stroke="none"></path></g></g></g><g id="svga-group-eyebrows-right-move" transform="matrix(1,0,0,1,0,0)"><g id="svga-group-eyebrows-right-rotate" transform="matrix(1,1.7453292519943295e-9,-1.7453292519943295e-9,1,1.5158184396568686e-7,-2.0952678880803433e-7)"><g id="svga-group-eyebrows-right"><path id="SvgjsPath6248" d="m107.8 87.2 1.7 3.5 14.6-4.1 8.2 2-5.9-5-3-.6z" fill="#3b3128" stroke-width="none" opacity="1" stroke="none"></path><path id="SvgjsPath6249" d="m114.3 85.5-1.4.4-.5 2.6 1.9-3zm9.1-2.5-3 3.6 4.3-3.4-1.3-.2zm-6.4 1.7-1 3.1 2.6-3.5-1.6.4zm12 1.1h-1.9l2.6.6-.7-.6zm-13.9-.6-.2 1.1 1.1-1.4-.9.3zm11.3-1.6-2.6 1.4 3.2-.8-.6-.6zm-15.7 2.8-.5 3.1 2.3-3.5-1.8.4z" fill="#4a423a" stroke-width="none" opacity="1" stroke="none"></path></g></g></g><g id="svga-group-nose-single-move" transform="matrix(1,0,0,1,0,0)"><g id="svga-group-nose-single"><path id="SvgjsPath4144" d="m106.39 109.63-.72-.09-1.09-.01 1.23.86 1.4 8.65-3.62.99-1.27.73 6.51-.91z" fill="#d4958a" stroke-width="none" opacity="1" transform="translate(0 2)"></path><path id="SvgjsPath4145" d="m103.41 117.68-3.15 3.28h-.53l-3.15-3.28-3.08.45 1.18 1.09 1.81-.45 3.05 4.01h.91l3.05-4.01 1.81.45 1.17-1.09z" fill="#d4958a" stroke-width="none" opacity="1" transform="translate(0 2)"></path><path id="SvgjsPath4146" d="m96.4 120.03-3.62-.99 1.4-8.65 1.23-.86-.69.01 1.89-14.75-2.67 14.8-.35.04-2.44 10.22 6.51.91z" fill="#d4958a" stroke-width="none" opacity="1" transform="translate(0 2)"></path><path id="SvgjsPath4147" d="m102.76 94.48 1.53 10.76.73.59-1.77-10.36z" fill="#d4958a" stroke-width="none" opacity="1" transform="translate(0 2)"></path><path id="SvgjsPath4148" d="M104.26 116.95s1.75.38 1.75.19-.88-6.26-.88-6.26l-.88-.63v6.7z" fill="#fbe5e2" stroke-width="none" opacity="1" transform="translate(0 2)"></path><path id="SvgjsPath4149" d="m99.94 117.63 2.69-.43-1.5-17.73-.5-1.62z" fill="#fbe5e2" stroke-width="none" opacity="1" transform="translate(0 2)"></path></g></g><g id="svga-group-hair-front"><path id="SvgjsPath4676" d="m76.3 163.2-4.6 14.9L60 190.5l.5 11.6-5.7 11-2.9-8.6-10.7-10.7.7-16.2L60 150l3.1-8.5 2.5 4.5 1.7-2.4 2.5 2.8z" fill="#955932" stroke-width="none" opacity="1" stroke="none"></path><path id="SvgjsPath4677" d="m120.2 54-21.6 2.3-22.6-1-12.2 13-.3 26.2 6.5 25.2-8.4 29.3-18.7 31.6 1.6 15.2 9 14.2v7.1L48 209l-13.6-10.6-3.5-22.6 7.7-22.3L49 125.4l-8.7-39.7 2.3-10 2.6-19.1 19.7-24.2 25.3-9.1 26.2 5.5 10.2 9.8.9 5.5 12.7 7.6 5.8 22.1-4.3 20.1-3.1.2-3.6-21.2L124.6 62l-4.4-8zm-55.5 93.3-8.5 31-5.9 9 1 12 3.1 5.1.3 8.7 1.5-10.5-2.6-5.1.3-10.5 6.7-7.2 4.1-32.5zm8.7 15.4-9.5 17.7-7.7 9.2 1 9 1 3.3.3-12 11-11.3 3.9-15.9z" fill="#a46c47" stroke-width="none" opacity="1" stroke="none"></path><path id="SvgjsPath4678" d="m88.5 32.4-22.2 7.5-13 19.2 1 17.3 14 41.1-.4 9.1 2-7-6.5-25.2.3-26.2L76 55.3l22.6 1 21.6-2.3-7.7-14.6-24-7zm54 53.8-3.4-3.6-1.3-4.7h6.5l-4.1-3.1-6.7-9L120.2 54l4.2 7.9 10.4 10.9 3.6 21.2 3.1-.2-1.8-7.9 2.8.3zm-21.9-33.5 3.5-3.7 3-3.5-2.2 4.7-4.3 2.5zm-75.5 4 .3 26.8 13.4 41-1.8 25-7.8 18.3 9.2-18.1 3.5-27.2-14.4-41.2-2.4-24.6zm-4.9 29 9.2 40.6-15.1 51.5.1 20.6L48 209.1l5.5 8.1-5.7-11.9L37 198v-21l19.7-55-16.5-36.3z" fill="#9c623c" stroke-width="none" opacity="1" stroke="none"></path><path id="SvgjsPath4679" d="m86 45.8-15.1 1.9-11.5 17.1 2 18.1 2.2 5.8.2-20.4 12.3-12.9 22.6 1z" fill="#85481f" stroke-width="none" opacity="1" stroke="none"></path><path id="SvgjsPath4680" d="m121.1 50-4.9-15.1L88 28.4l-24.3 8.2-16.1 22 2.3 22L65.3 120 60 150l-10.8 17.8-9.9 14.3 2 16.1 7.6 5.6-5.9-7.9-1.3-13.2L52.5 165l9.1-16 6.7-31.5-15.2-38.9-1.6-19.7 17.1-21 20.7-6.6 23.2 8.1z" fill="#ac7653" stroke-width="none" opacity="1" stroke="none"></path><path id="SvgjsPath4681" d="m124.1 54.3 11.5 9.2 5.9 9.2 3.6 2.3-7.2-15.5z" fill="#b38160" stroke-width="none" opacity="1" stroke="none"></path></g><g id="svga-group-glasses-single-move" transform="matrix(1,0,0,1,0,0)"><g id="svga-group-glasses-single"><path id="SvgjsPath7970" d="m68.33 95.41-.06 5.21 2.19 6.67 3.39 3.52 6.55 1.82 5.82-.43 5.16-3.27 2.66-4.25.91-3.88-.24-5.76-7.76-3.45-9.46-1.4-7.7 1.76z" fill="url(#SvgjsLinearGradient7971)" opacity="1"></path><path id="SvgjsPath7978" d="m131.67 95.41.06 5.21-2.19 6.67-3.39 3.52-6.55 1.82-5.82-.43-5.16-3.27-2.66-4.25-.91-3.88.24-5.76 7.76-3.45 9.46-1.4 7.7 1.76z" fill="url(#SvgjsLinearGradient7979)" opacity="1"></path><path id="SvgjsPath7986" d="m87.05 91.36-9.57-1.42-7.87 1.8-1.5 3.57-.08 5.35 2.2 6.71 3.5 3.66 6.65 1.85 5.86-.43 5.27-3.31 2.74-4.32.95-3.99-.25-5.94-7.9-3.53zm6.77 13.23-2.62 4.16-5.06 3.21-5.72.42-6.44-1.79-3.31-3.43-2.15-6.58.06-5.13 1.39-3.3 7.53-1.72 9.38 1.38 7.59 3.38.23 5.58-.88 3.82z" fill="#070201" stroke-width="none" opacity="1"></path><path id="SvgjsPath7987" d="m130.39 91.74-7.87-1.8-9.57 1.42-7.9 3.52-.25 5.94.95 3.99 2.74 4.32 5.27 3.31 5.86.43 6.65-1.85 3.5-3.66 2.2-6.71-.08-5.35-1.5-3.56zm-1.06 15.42-3.31 3.43-6.44 1.79-5.72-.42-5.06-3.21-2.62-4.16-.89-3.81.23-5.58 7.59-3.38 9.38-1.38 7.53 1.72 1.39 3.3.06 5.13-2.14 6.57z" fill="#070201" stroke-width="none" opacity="1"></path><path id="SvgjsPath7988" d="M95.6 94.5h8.5v1.4h-8.5v-1.4z" fill="#170904" stroke-width="none" opacity="1"></path><path id="SvgjsPath7989" d="m88.75 90.75-11.37-1.51-14.44 1.29v3.45l2.1 1.29 1.19 2.59 2.42.41.89-4.1 2.88-2.35s4.85-.54 5.01-.59 10.62 1.51 10.62 1.51l4.8 2.26 1.46 2.05.22 1.78 1.51-1.24.59-1.67-.86-2.37-7.02-2.8z" fill="#26120b" stroke-width="none" opacity="1"></path><path id="SvgjsPath7990" d="m122.62 89.24-11.37 1.51-7.01 2.8-.86 2.37.59 1.67 1.51 1.24.22-1.78 1.46-2.05 4.8-2.26s10.46-1.56 10.62-1.51 5.01.59 5.01.59l2.88 2.35.89 4.1 2.42-.41 1.19-2.59 2.1-1.29v-3.45l-14.45-1.29z" fill="#26120b" stroke-width="none" opacity="1"></path><path id="SvgjsPath7991" d="m95.86 93.51-.02-.05-.05-.02-7-2.81-.01-.01h-.01l-11.37-1.5h-.02l-14.44 1.39-.04 3.46V94l.02.01 2.08 1.3 1.17 2.57.02.04.04.01 2.42.42.08.01.02-.08.9-4.06 2.83-2.31 3.9-.48.98-.12c.27-.03.63.05.94.08l1.95.26c2.6.36 5.2.72 7.8 1.12l4.77 2.27 1.43 2.03.2 1.76.02.14.11-.09 1.52-1.23.02-.02.01-.02.6-1.67.01-.03-.01-.03-.87-2.37zm.09 4.03-1.37 1.14-.21-1.63v-.02l-.01-.01-1.46-2.04-.01-.01-.01-.01-4.8-2.25h-.02l-7.8-1.17-1.95-.28c-.33-.03-.63-.12-1.01-.08l-.98.11-3.9.44h-.03l-.02.02-2.89 2.34-.03.02-.01.04-.86 4.02-2.3-.38-1.18-2.55-.01-.02-.02-.01-2.09-1.27-.04-3.41 14.43-1.19 11.35 1.51 6.95 2.77.84 2.29-.56 1.63z" fill="#070201" stroke-width="none" opacity="1"></path><path id="SvgjsPath7992" d="M137.12 94.01v-.03l-.04-3.46-14.44-1.39h-.02l-11.37 1.5h-.01l-.01.01-7 2.81-.05.02-.02.05-.85 2.38-.01.03.01.03.6 1.67.01.02.02.02 1.52 1.23.11.09.02-.14.2-1.76 1.43-2.03 4.77-2.27c2.6-.39 5.2-.75 7.8-1.12l1.95-.26c.32-.03.67-.11.94-.08l.98.12 3.9.48 2.83 2.31.9 4.06.02.08.08-.01 2.42-.42.04-.01.02-.04 1.17-2.57 2.08-1.3v-.02zm-.1-.06-2.09 1.27-.02.01-.01.02-1.18 2.55-2.3.38-.86-4.02-.01-.04-.03-.02-2.89-2.34-.02-.02h-.03l-3.9-.44-.98-.11c-.38-.04-.68.05-1.01.08l-1.95.28-7.8 1.17h-.02l-4.8 2.25-.01.01-.01.01-1.46 2.04-.01.01v.02l-.21 1.63-1.37-1.14-.56-1.62.84-2.29 6.95-2.77 11.35-1.51 14.43 1.19-.04 3.4z" fill="#070201" stroke-width="none" opacity="1"></path></g></g></g></g></g><rect id="svga-credit-rect" width="200" height="15" x="0" y="185" fill="#ecf0f1" opacity="0.5" style="display: none;"></rect><text id="svga-credit-text" font-family="Avenir Next, Roboto, Helvetica, Arial, sans-serif" font-size="10px" text-anchor="start" font-weight="400" size="10px" anchor="start" weight="400" fill="#333333" x="33.402061462402344" y="182.71133995056152" style="display: none;"><tspan id="SvgjsTspan3978" dy="13" x="33.402061462402344">Created on AvatarMaker.com</tspan></text></g><defs id="SvgjsDefs3930"><linearGradient id="SvgjsLinearGradient7263" x1="81.6132" y1="90.1912" x2="81.6132" y2="112.6263" gradientUnits="userSpaceOnUse" class="svga-on-canvas-glasses-gradient-single-0-null"><stop id="SvgjsStop7264" stop-opacity="1" stop-color="#3d2d1c" offset="0.0208" ></stop><stop id="SvgjsStop7265" stop-opacity="0.6291" stop-color="#402e1c" offset="0.3825" ></stop><stop id="SvgjsStop7266" stop-opacity="0.3897" stop-color="#48321d" offset="0.6159" ></stop><stop id="SvgjsStop7267" stop-opacity="0.1881" stop-color="#57381f" offset="0.8124" ></stop><stop id="SvgjsStop7268" stop-opacity="7.593334e-03" stop-color="#6c4221" offset="0.9884" ></stop><stop id="SvgjsStop7269" stop-opacity="0" stop-color="#6d4221" offset="0.9958" ></stop></linearGradient><linearGradient id="SvgjsLinearGradient7271" x1="-20.3868" y1="90.1912" x2="-20.3868" y2="112.6263" gradientTransform="matrix(-1 0 0 1 98 0)" gradientUnits="userSpaceOnUse" class="svga-on-canvas-glasses-gradient-single-1-null"><stop id="SvgjsStop7272" stop-opacity="1" stop-color="#3d2d1c" offset="0.0208" ></stop><stop id="SvgjsStop7273" stop-opacity="0.6291" stop-color="#402e1c" offset="0.3825" ></stop><stop id="SvgjsStop7274" stop-opacity="0.3897" stop-color="#48321d" offset="0.6159" ></stop><stop id="SvgjsStop7275" stop-opacity="0.1881" stop-color="#57381f" offset="0.8124" ></stop><stop id="SvgjsStop7276" stop-opacity="7.593334e-03" stop-color="#6c4221" offset="0.9884" ></stop><stop id="SvgjsStop7277" stop-opacity="0" stop-color="#6d4221" offset="0.9958" ></stop></linearGradient><linearGradient id="SvgjsLinearGradient7363" x1="80.1147" y1="87.6713" x2="80.1147" y2="115.9043" gradientUnits="userSpaceOnUse" class="svga-on-canvas-glasses-gradient-single-0-null"><stop id="SvgjsStop7364" stop-opacity="1" stop-color="#150000" offset="0.004166667" ></stop><stop id="SvgjsStop7365" stop-opacity="0.8088" stop-color="#190300" offset="0.1945" ></stop><stop id="SvgjsStop7366" stop-opacity="0.6342" stop-color="#240c00" offset="0.3684" ></stop><stop id="SvgjsStop7367" stop-opacity="0.466" stop-color="#361b00" offset="0.5359" ></stop><stop id="SvgjsStop7368" stop-opacity="0.3018" stop-color="#503100" offset="0.6994" ></stop><stop id="SvgjsStop7369" stop-opacity="0.1421" stop-color="#724c00" offset="0.8585" ></stop><stop id="SvgjsStop7370" stop-opacity="0" stop-color="#966a00" offset="1" ></stop></linearGradient><linearGradient id="SvgjsLinearGradient7372" x1="-21.8853" y1="87.6713" x2="-21.8853" y2="115.9043" gradientTransform="matrix(-1 0 0 1 98 0)" gradientUnits="userSpaceOnUse" class="svga-on-canvas-glasses-gradient-single-1-null"><stop id="SvgjsStop7373" stop-opacity="1" stop-color="#150000" offset="0.004166667" ></stop><stop id="SvgjsStop7374" stop-opacity="0.8088" stop-color="#190300" offset="0.1945" ></stop><stop id="SvgjsStop7375" stop-opacity="0.6342" stop-color="#240c00" offset="0.3684" ></stop><stop id="SvgjsStop7376" stop-opacity="0.466" stop-color="#361b00" offset="0.5359" ></stop><stop id="SvgjsStop7377" stop-opacity="0.3018" stop-color="#503100" offset="0.6994" ></stop><stop id="SvgjsStop7378" stop-opacity="0.1421" stop-color="#724c00" offset="0.8585" ></stop><stop id="SvgjsStop7379" stop-opacity="0" stop-color="#966a00" offset="1" ></stop></linearGradient><linearGradient id="SvgjsLinearGradient7448" x1="81.4344" y1="88.3175" x2="81.4344" y2="110.9249" gradientUnits="userSpaceOnUse" class="svga-on-canvas-glasses-gradient-single-0-null"><stop id="SvgjsStop7449" stop-opacity="1" stop-color="#000000" offset="0" ></stop><stop id="SvgjsStop7450" stop-opacity="0" stop-color="#000000" offset="1" ></stop></linearGradient><linearGradient id="SvgjsLinearGradient7452" x1="-20.5656" y1="88.3175" x2="-20.5656" y2="110.9249" gradientTransform="matrix(-1 0 0 1 98 0)" gradientUnits="userSpaceOnUse" class="svga-on-canvas-glasses-gradient-single-1-null"><stop id="SvgjsStop7453" stop-opacity="1" stop-color="#000000" offset="0" ></stop><stop id="SvgjsStop7454" stop-opacity="0" stop-color="#000000" offset="1" ></stop></linearGradient><linearGradient id="SvgjsLinearGradient7512" x1="81.5805" y1="86.4904" x2="81.5805" y2="114.1066" gradientUnits="userSpaceOnUse" class="svga-on-canvas-glasses-gradient-single-0-null"><stop id="SvgjsStop7513" stop-opacity="1" stop-color="#211810" offset="0" ></stop><stop id="SvgjsStop7514" stop-opacity="0.5916" stop-color="#231910" offset="0.4084" ></stop><stop id="SvgjsStop7515" stop-opacity="0.4056" stop-color="#2a1d12" offset="0.5944" ></stop><stop id="SvgjsStop7516" stop-opacity="0.2646" stop-color="#372415" offset="0.7354" ></stop><stop id="SvgjsStop7517" stop-opacity="0.1464" stop-color="#492e19" offset="0.8536" ></stop><stop id="SvgjsStop7518" stop-opacity="4.349256e-02" stop-color="#613b1e" offset="0.9565" ></stop><stop id="SvgjsStop7519" stop-opacity="0" stop-color="#6d4221" offset="1" ></stop></linearGradient><linearGradient id="SvgjsLinearGradient7521" x1="-17.7491" y1="86.4904" x2="-17.7491" y2="114.1066" gradientTransform="matrix(-1 0 0 1 100.6704 0)" gradientUnits="userSpaceOnUse" class="svga-on-canvas-glasses-gradient-single-1-null"><stop id="SvgjsStop7522" stop-opacity="1" stop-color="#211810" offset="0" ></stop><stop id="SvgjsStop7523" stop-opacity="0.5916" stop-color="#231910" offset="0.4084" ></stop><stop id="SvgjsStop7524" stop-opacity="0.4056" stop-color="#2a1d12" offset="0.5944" ></stop><stop id="SvgjsStop7525" stop-opacity="0.2646" stop-color="#372415" offset="0.7354" ></stop><stop id="SvgjsStop7526" stop-opacity="0.1464" stop-color="#492e19" offset="0.8536" ></stop><stop id="SvgjsStop7527" stop-opacity="4.349256e-02" stop-color="#613b1e" offset="0.9565" ></stop><stop id="SvgjsStop7528" stop-opacity="0" stop-color="#6d4221" offset="1" ></stop></linearGradient><linearGradient id="SvgjsLinearGradient7594" x1="81.6132" y1="90.1912" x2="81.6132" y2="112.6263" gradientUnits="userSpaceOnUse" class="svga-on-canvas-glasses-gradient-single-0-null"><stop id="SvgjsStop7595" stop-opacity="1" stop-color="#3d2d1c" offset="0.0208" ></stop><stop id="SvgjsStop7596" stop-opacity="0.6291" stop-color="#402e1c" offset="0.3825" ></stop><stop id="SvgjsStop7597" stop-opacity="0.3897" stop-color="#48321d" offset="0.6159" ></stop><stop id="SvgjsStop7598" stop-opacity="0.1881" stop-color="#57381f" offset="0.8124" ></stop><stop id="SvgjsStop7599" stop-opacity="7.593334e-03" stop-color="#6c4221" offset="0.9884" ></stop><stop id="SvgjsStop7600" stop-opacity="0" stop-color="#6d4221" offset="0.9958" ></stop></linearGradient><linearGradient id="SvgjsLinearGradient7602" x1="-20.3868" y1="90.1912" x2="-20.3868" y2="112.6263" gradientTransform="matrix(-1 0 0 1 98 0)" gradientUnits="userSpaceOnUse" class="svga-on-canvas-glasses-gradient-single-1-null"><stop id="SvgjsStop7603" stop-opacity="1" stop-color="#3d2d1c" offset="0.0208" ></stop><stop id="SvgjsStop7604" stop-opacity="0.6291" stop-color="#402e1c" offset="0.3825" ></stop><stop id="SvgjsStop7605" stop-opacity="0.3897" stop-color="#48321d" offset="0.6159" ></stop><stop id="SvgjsStop7606" stop-opacity="0.1881" stop-color="#57381f" offset="0.8124" ></stop><stop id="SvgjsStop7607" stop-opacity="7.593334e-03" stop-color="#6c4221" offset="0.9884" ></stop><stop id="SvgjsStop7608" stop-opacity="0" stop-color="#6d4221" offset="0.9958" ></stop></linearGradient><linearGradient id="SvgjsLinearGradient7694" x1="81.5805" y1="86.4904" x2="81.5805" y2="114.1066" gradientUnits="userSpaceOnUse" class="svga-on-canvas-glasses-gradient-single-0-null"><stop id="SvgjsStop7695" stop-opacity="1" stop-color="#211810" offset="0" ></stop><stop id="SvgjsStop7696" stop-opacity="0.5916" stop-color="#231910" offset="0.4084" ></stop><stop id="SvgjsStop7697" stop-opacity="0.4056" stop-color="#2a1d12" offset="0.5944" ></stop><stop id="SvgjsStop7698" stop-opacity="0.2646" stop-color="#372415" offset="0.7354" ></stop><stop id="SvgjsStop7699" stop-opacity="0.1464" stop-color="#492e19" offset="0.8536" ></stop><stop id="SvgjsStop7700" stop-opacity="4.349256e-02" stop-color="#613b1e" offset="0.9565" ></stop><stop id="SvgjsStop7701" stop-opacity="0" stop-color="#6d4221" offset="1" ></stop></linearGradient><linearGradient id="SvgjsLinearGradient7703" x1="-17.7491" y1="86.4904" x2="-17.7491" y2="114.1066" gradientTransform="matrix(-1 0 0 1 100.6704 0)" gradientUnits="userSpaceOnUse" class="svga-on-canvas-glasses-gradient-single-1-null"><stop id="SvgjsStop7704" stop-opacity="1" stop-color="#211810" offset="0" ></stop><stop id="SvgjsStop7705" stop-opacity="0.5916" stop-color="#231910" offset="0.4084" ></stop><stop id="SvgjsStop7706" stop-opacity="0.4056" stop-color="#2a1d12" offset="0.5944" ></stop><stop id="SvgjsStop7707" stop-opacity="0.2646" stop-color="#372415" offset="0.7354" ></stop><stop id="SvgjsStop7708" stop-opacity="0.1464" stop-color="#492e19" offset="0.8536" ></stop><stop id="SvgjsStop7709" stop-opacity="4.349256e-02" stop-color="#613b1e" offset="0.9565" ></stop><stop id="SvgjsStop7710" stop-opacity="0" stop-color="#6d4221" offset="1" ></stop></linearGradient><linearGradient id="SvgjsLinearGradient7776" x1="80.9" y1="113.7412" x2="80.9" y2="86.1412" gradientTransform="matrix(1 0 0 -1 0 200)" gradientUnits="userSpaceOnUse" class="svga-on-canvas-glasses-gradient-single-0-null"><stop id="SvgjsStop7777" stop-opacity="1" stop-color="#211810" offset="0" ></stop><stop id="SvgjsStop7778" stop-opacity="0.7372" stop-color="#231b13" offset="0.2628" ></stop><stop id="SvgjsStop7779" stop-opacity="0.5527" stop-color="#2b231c" offset="0.4473" ></stop><stop id="SvgjsStop7780" stop-opacity="0.3921" stop-color="#38312c" offset="0.6079" ></stop><stop id="SvgjsStop7781" stop-opacity="0.2453" stop-color="#4b4641" offset="0.7547" ></stop><stop id="SvgjsStop7782" stop-opacity="0.1091" stop-color="#62605e" offset="0.8909" ></stop><stop id="SvgjsStop7783" stop-opacity="0" stop-color="#7a7a7a" offset="1" ></stop></linearGradient><linearGradient id="SvgjsLinearGradient7785" x1="-19.1" y1="113.7412" x2="-19.1" y2="86.1412" gradientTransform="matrix(-1 0 0 -1 100 200)" gradientUnits="userSpaceOnUse" class="svga-on-canvas-glasses-gradient-single-1-null"><stop id="SvgjsStop7786" stop-opacity="1" stop-color="#211810" offset="0" ></stop><stop id="SvgjsStop7787" stop-opacity="0.7372" stop-color="#231b13" offset="0.2628" ></stop><stop id="SvgjsStop7788" stop-opacity="0.5527" stop-color="#2b231c" offset="0.4473" ></stop><stop id="SvgjsStop7789" stop-opacity="0.3921" stop-color="#38312c" offset="0.6079" ></stop><stop id="SvgjsStop7790" stop-opacity="0.2453" stop-color="#4b4641" offset="0.7547" ></stop><stop id="SvgjsStop7791" stop-opacity="0.1091" stop-color="#62605e" offset="0.8909" ></stop><stop id="SvgjsStop7792" stop-opacity="0" stop-color="#7a7a7a" offset="1" ></stop></linearGradient><linearGradient id="SvgjsLinearGradient7866" x1="81.6132" y1="90.1912" x2="81.6132" y2="112.6263" gradientUnits="userSpaceOnUse" class="svga-on-canvas-glasses-gradient-single-0-null"><stop id="SvgjsStop7867" stop-opacity="1" stop-color="#3d2d1c" offset="0.0208" ></stop><stop id="SvgjsStop7868" stop-opacity="0.6291" stop-color="#402e1c" offset="0.3825" ></stop><stop id="SvgjsStop7869" stop-opacity="0.3897" stop-color="#48321d" offset="0.6159" ></stop><stop id="SvgjsStop7870" stop-opacity="0.1881" stop-color="#57381f" offset="0.8124" ></stop><stop id="SvgjsStop7871" stop-opacity="7.593334e-03" stop-color="#6c4221" offset="0.9884" ></stop><stop id="SvgjsStop7872" stop-opacity="0" stop-color="#6d4221" offset="0.9958" ></stop></linearGradient><linearGradient id="SvgjsLinearGradient7874" x1="-20.3868" y1="90.1912" x2="-20.3868" y2="112.6263" gradientTransform="matrix(-1 0 0 1 98 0)" gradientUnits="userSpaceOnUse" class="svga-on-canvas-glasses-gradient-single-1-null"><stop id="SvgjsStop7875" stop-opacity="1" stop-color="#3d2d1c" offset="0.0208" ></stop><stop id="SvgjsStop7876" stop-opacity="0.6291" stop-color="#402e1c" offset="0.3825" ></stop><stop id="SvgjsStop7877" stop-opacity="0.3897" stop-color="#48321d" offset="0.6159" ></stop><stop id="SvgjsStop7878" stop-opacity="0.1881" stop-color="#57381f" offset="0.8124" ></stop><stop id="SvgjsStop7879" stop-opacity="7.593334e-03" stop-color="#6c4221" offset="0.9884" ></stop><stop id="SvgjsStop7880" stop-opacity="0" stop-color="#6d4221" offset="0.9958" ></stop></linearGradient><linearGradient id="SvgjsLinearGradient7971" x1="81.6132" y1="90.1912" x2="81.6132" y2="112.6263" gradientUnits="userSpaceOnUse" class="svga-on-canvas-glasses-gradient-single-0-null"><stop id="SvgjsStop7972" stop-opacity="1" stop-color="#3d2d1c" offset="0.0208" ></stop><stop id="SvgjsStop7973" stop-opacity="0.6291" stop-color="#402e1c" offset="0.3825" ></stop><stop id="SvgjsStop7974" stop-opacity="0.3897" stop-color="#48321d" offset="0.6159" ></stop><stop id="SvgjsStop7975" stop-opacity="0.1881" stop-color="#57381f" offset="0.8124" ></stop><stop id="SvgjsStop7976" stop-opacity="7.593334e-03" stop-color="#6c4221" offset="0.9884" ></stop><stop id="SvgjsStop7977" stop-opacity="0" stop-color="#6d4221" offset="0.9958" ></stop></linearGradient><linearGradient id="SvgjsLinearGradient7979" x1="-20.3868" y1="90.1912" x2="-20.3868" y2="112.6263" gradientTransform="matrix(-1 0 0 1 98 0)" gradientUnits="userSpaceOnUse" class="svga-on-canvas-glasses-gradient-single-1-null"><stop id="SvgjsStop7980" stop-opacity="1" stop-color="#3d2d1c" offset="0.0208" ></stop><stop id="SvgjsStop7981" stop-opacity="0.6291" stop-color="#402e1c" offset="0.3825" ></stop><stop id="SvgjsStop7982" stop-opacity="0.3897" stop-color="#48321d" offset="0.6159" ></stop><stop id="SvgjsStop7983" stop-opacity="0.1881" stop-color="#57381f" offset="0.8124" ></stop><stop id="SvgjsStop7984" stop-opacity="7.593334e-03" stop-color="#6c4221" offset="0.9884" ></stop><stop id="SvgjsStop7985" stop-opacity="0" stop-color="#6d4221" offset="0.9958" ></stop></linearGradient></defs></svg>
